<?xml version="1.0" encoding="UTF-8" standalone="no"?>
<!DOCTYPE svg PUBLIC "-//W3C//DTD SVG 1.1//EN" "http://www.w3.org/Graphics/SVG/1.1/DTD/svg11.dtd">
<!-- Created with Vectornator (http://vectornator.io/) -->
<svg height="100%" stroke-miterlimit="10" style="fill-rule:nonzero;clip-rule:evenodd;stroke-linecap:round;stroke-linejoin:round;" version="1.1" viewBox="0 0 226.82 57.56" width="100%" xml:space="preserve" xmlns="http://www.w3.org/2000/svg" xmlns:vectornator="http://vectornator.io" xmlns:xlink="http://www.w3.org/1999/xlink">
<defs/>
<g id="Ohne-Titel" vectornator:layerName="Ohne Titel">
<path d="M137.3 8.11C136.701 7.67334 135.981 7.4355 135.24 7.43C134.03 7.43 133.37 8.19 133.37 9.84L133.37 10.67L138.34 10.67L138.34 12.6L133.37 12.6L133.37 23.45L131.24 23.45L131.24 12.6L127.64 12.6L127.64 10.67L131.24 10.67L131.24 9.9C131.24 6.8 132.74 5.51 135.17 5.51C136.34 5.51 137.12 5.81 137.83 6.25L137.3 8.12L137.3 8.11Z" fill="#000000" fill-rule="nonzero" opacity="1" stroke="none" vectornator:layerName="path"/>
<path d="M145.44 21.73C148.04 21.73 149.54 19.53 149.54 17.06C149.54 14.6 148.04 12.4 145.44 12.4C142.83 12.4 141.34 14.6 141.34 17.06C141.34 19.52 142.83 21.73 145.44 21.73M145.44 10.47C149.34 10.47 151.72 13.54 151.72 17.07C151.72 20.59 149.34 23.65 145.44 23.65C141.54 23.65 139.15 20.59 139.15 17.06C139.15 13.54 141.54 10.47 145.44 10.47" fill="#000000" fill-rule="nonzero" opacity="1" stroke="none" vectornator:layerName="path"/>
<path d="M163.23 14.73C163.05 13.26 162.29 12.4 160.77 12.4C158.54 12.4 156.44 14.5 156.44 18.84L156.44 23.45L154.31 23.45L154.31 10.67L156.44 10.67L156.44 13.03C157.444 11.4011 159.237 10.4267 161.15 10.47C163.69 10.47 165.21 11.99 165.36 14.73C165.36 14.73 163.23 14.73 163.23 14.73Z" fill="#000000" fill-rule="nonzero" opacity="1" stroke="none" vectornator:layerName="path"/>
<path d="M33.77 49.67L35.67 49.67L35.67 4.9L30.07 4.9L30.07 49.67L33.77 49.67Z" fill="#d57a75" fill-rule="nonzero" opacity="1" stroke="none" vectornator:layerName="path"/>
</g>
<g id="g11" vectornator:layerName="g11">
<path d="M52.27 53.86C52.66 53.86 53.17 53.52 53.17 53.14L53.17 0.71C53.17 0.32 52.66 0.00999992 52.27 0.00999992L34.8 0.00999992C34.41 0.00999992 34.28 0.16 34.28 0.36L34.28 4.9C34.28 5.28 34.41 5.6 34.79 5.6L46.68 5.6C47.06 5.6 47.57 5.91 47.57 6.3L47.57 47.55C47.57 47.93 47.07 48.27 46.67 48.27L34.8 48.27C34.42 48.27 34.29 48.4 34.29 48.59L34.29 53.14C34.29 53.52 34.42 53.87 34.8 53.87L52.27 53.87L52.27 53.86Z" fill="#ce5a4e" fill-rule="nonzero" opacity="1" stroke="none" vectornator:layerName="path"/>
</g>
<g id="Ohne-Titel_2" vectornator:layerName="Ohne Titel">
<path d="M64.85 49.67L65.75 49.67L65.75 4.9L60.15 4.9L60.15 49.67L64.85 49.67Z" fill="#8bbd97" fill-rule="nonzero" opacity="1" stroke="none" vectornator:layerName="path"/>
</g>
<clipPath id="ArtboardFrame">
<rect height="57.56" width="226.82" x="0" y="0"/>
</clipPath>
<g clip-path="url(#ArtboardFrame)" id="g17" vectornator:layerName="g17">
<path d="M65.05 53.83L65.05 48.24C72.75 48.24 78.12 38.68 78.12 26.92C78.12 15.16 72.75 5.6 65.05 5.6L65.05-7.6294e-08C75.55-7.6294e-08 83.71 12.08 83.71 26.92C83.71 41.76 75.54 53.83 65.05 53.83" fill="#4ea15a" fill-rule="nonzero" opacity="1" stroke="none" vectornator:layerName="path"/>
<path d="M7 36.63L7 46.83C7 51.01 9.67 53.87 13.9 53.87L22.56 53.87C22.76 53.87 23.08 53.52 23.08 53.14L23.08 48.94C23.08 48.56 22.6 48.27 22.21 48.27L14.87 48.27C13.07 48.27 12.59 47.5 12.59 45.43L12.59 33.37C12.59 29.15 10.88 27.6 8.79 26.83C10.88 26.07 12.59 24.52 12.59 20.3L12.59 8.24C12.59 6.21 12.99 5.6 14.87 5.6L22.56 5.6C22.76 5.6 23.08 5.28 23.08 4.9L23.08 0.7C23.08 0.32 22.59-7.62939e-08 22.21-7.62939e-08L13.91-7.62939e-08C9.68-7.62939e-08 7 2.74 7 6.84L7 18.18C7 18.18 6.86 20.28 6.76 20.99C6.49 22.89 4.18 24.51 2.74 24.49L0.539998 24.49C0.159998 24.49-1.83105e-06 24.79-1.83105e-06 25.17L-1.83105e-06 29.37C-1.83105e-06 29.75 0.159998 30.08 0.539998 30.08L2.55 30.08C4.38 30.06 6.7 31.6 6.87 33.9C6.92 34.57 7 36.64 7 36.64" fill="#33a1df" fill-rule="nonzero" opacity="1" stroke="none" vectornator:layerName="path"/>
<path d="M34.8 0.00999992L30.6 0.00999992C30.21 0.00999992 30.08 0.32 30.08 0.71L30.08 5.6L35.67 5.6L35.67-7.62939e-08L34.8-7.62939e-08L34.8 0.00999992Z" fill="#bd3c38" fill-rule="nonzero" opacity="1" stroke="none" vectornator:layerName="path"/>
<path d="M30.07 48.94L30.07 53.13C30.07 53.52 30.22 53.86 30.6 53.86L35.67 53.86L35.67 48.27L30.08 48.27L30.08 48.94L30.07 48.94Z" fill="#bd3c38" fill-rule="nonzero" opacity="1" stroke="none" vectornator:layerName="path"/>
<path d="M64.85 0.00999992L60.67 0.00999992C60.29 0.00999992 60.17 0.32 60.17 0.71L60.17 5.6L65.76 5.6L65.76-7.62939e-08L64.86-7.62939e-08L64.85 0.00999992Z" fill="#27954e" fill-rule="nonzero" opacity="1" stroke="none" vectornator:layerName="path"/>
<path d="M60.16 48.94L60.16 53.13C60.16 53.52 60.28 53.86 60.66 53.86L65.76 53.86L65.76 48.27L60.15 48.27L60.15 48.94L60.16 48.94Z" fill="#27954e" fill-rule="nonzero" opacity="1" stroke="none" vectornator:layerName="path"/>
<path d="M95.13 36.63L95.13 46.83C95.13 51.01 97.76 53.87 101.99 53.87L110.64 53.87C110.84 53.87 111.21 53.52 111.21 53.14L111.21 48.94C111.21 48.56 110.68 48.27 110.29 48.27L102.97 48.27C101.16 48.27 100.73 47.5 100.73 45.43L100.73 33.37C100.73 32.01 100.33 30.78 100.03 30.08L90.63 30.08C93.22 30.78 94.32 31.7 94.84 33.95C95.11 35.07 95.14 36.64 95.14 36.64" fill="#7bbbb7" fill-rule="nonzero" opacity="1" stroke="none" vectornator:layerName="path"/>
<path d="M94.73 20.99C94.19 22.83 92.98 23.79 90.83 24.49L99.63 24.49C100.18 23.09 100.73 22.16 100.73 20.3L100.73 8.24C100.73 6.21 101.08 5.6 102.96 5.6L110.64 5.6C110.84 5.6 111.22 5.28 111.22 4.9L111.22 0.7C111.22 0.32 110.68-7.62939e-08 110.29-7.62939e-08L101.99-7.62939e-08C97.76-7.62939e-08 95.13 2.75 95.13 6.84L95.13 18.18C95.13 18.18 95 20.08 94.73 21" fill="#7bbbb7" fill-rule="nonzero" opacity="1" stroke="none" vectornator:layerName="path"/>
<path d="M96.09 27.33C97.51 27.85 99.06 28.68 100.02 30.08L110.29 30.08C110.68 30.08 111.22 29.75 111.22 29.37L111.22 25.17C111.22 24.79 110.68 24.48 110.29 24.48L99.63 24.48C98.93 25.88 97.27 26.9 96.09 27.33" fill="#9ac9c6" fill-rule="nonzero" opacity="1" stroke="none" vectornator:layerName="path"/>
<path d="M88.62 24.49C88.24 24.49 88.13 24.79 88.13 25.17L88.13 29.37C88.13 29.75 88.23 30.09 88.63 30.09L100.02 30.09C99.39 28.69 97.82 27.73 96.7 27.29C97.9975 26.7636 99.0453 25.7623 99.63 24.49L88.63 24.49L88.62 24.49Z" fill="#42a5a5" fill-rule="nonzero" opacity="1" stroke="none" vectornator:layerName="path"/>
</g>
<g clip-path="url(#ArtboardFrame)" id="g39" vectornator:layerName="g39">
<path d="M124.781 26.375L124.781 57.5625L226.812 57.5625L226.812 26.375L124.781 26.375ZM178.281 34.0625C179.105 34.2176 179.726 34.5549 180.062 35.0938C180.107 35.1656 180.056 35.2691 180.094 35.3438C182.253 34.5928 184.135 34.4856 185.344 35.4688C185.977 35.4585 186.515 35.5627 187.094 35.625C187.67 35.5207 188.302 35.3934 188.688 35.4062C189.252 35.425 189.648 35.6343 189.906 35.9688C190.88 35.9698 192.099 35.9688 192.531 35.9688C197.119 34.096 201.438 33.7369 203.125 35.9062C203.625 36.549 203.561 37.3714 203.281 38.2188C203.6 38.2315 203.852 38.226 204.344 38.25C205.566 38.3097 205.652 38.3114 206.312 38.3438C206.691 38.1367 207.094 37.8695 207.438 37.75C207.445 37.7467 207.461 37.7533 207.469 37.75C207.887 37.5711 208.452 37.1742 208.812 37.0625C209.625 36.8104 210.243 36.73 210.719 36.875C211.37 37.0735 211.666 37.659 211.5 38.4062C211.398 38.8657 211.047 39.4143 210.562 40C210.521 40.3494 210.211 40.7503 210.031 41.125C210.044 41.1478 210.047 41.1284 210.062 41.1562C210.038 41.5292 210.011 41.5283 209.875 41.6562C209.786 41.7215 209.801 41.7268 209.75 41.75C209.747 41.7541 209.721 41.7459 209.719 41.75C209.463 42.1503 209.204 42.5587 208.844 42.9688C210.198 43.0599 211.059 43.2073 211.188 43.5938C211.25 43.7807 211.107 43.8578 211.031 43.9688C211.108 43.9688 211.355 43.9688 211.406 43.9688C211.605 43.9687 213.346 43.9062 213.562 43.9062C213.806 43.9063 213.884 43.9187 214 43.9688C214.298 44.1348 214.301 44.1209 214.188 44.75C214.011 44.8905 213.999 44.8905 213.938 44.9062C213.885 44.9239 213.833 44.9537 213.75 44.9688C213.046 45.0968 212.242 45.159 211.5 45.25C211.484 45.2956 211.525 45.3098 211.5 45.375C211.358 45.5157 211.358 45.4974 211.281 45.5312C211.181 45.5771 211.04 45.6234 210.844 45.6562C210.705 45.6796 209.724 45.8037 209.656 45.8125C209.636 45.8653 209.654 45.9155 209.625 45.9688C209.325 46.5182 207.705 46.9576 205.406 47.3438C205.7 47.633 205.826 48.0095 205.531 48.5C205.273 48.9303 204.315 49.0613 202.906 49.0938C201.538 49.8495 200.244 49.9246 199.219 49.0312C199.047 49.0206 198.905 49.0111 198.688 49C196.803 48.9035 196.43 48.9107 195.906 48.9062C191.342 50.4885 187.033 50.6608 184.531 49.1875C183.756 49.2145 182.774 49.2614 182.094 49.2812C179.921 49.3447 178.341 49.2579 176.562 49.2188C174.673 49.5153 172.918 49.5 171.312 49.2188C171.3 49.2202 171.255 49.2182 171.25 49.2188C170.845 49.2591 170.612 49.2633 170.375 49.2188C170.263 49.1978 170.254 49.072 170.188 49C170.099 48.9731 169.992 48.9671 169.906 48.9375C169.273 48.8856 168.626 48.8451 168 48.7812C167.826 48.8238 167.658 48.8761 167.469 48.9062C167.459 48.91 167.447 48.9025 167.438 48.9062C165.025 49.8689 163.038 50.068 161.719 49.375C161.538 49.3733 161.397 49.3177 161.219 49.3125C160.634 49.4182 160.129 49.3881 159.625 49.3438C157.17 50.1639 154.882 50.1656 153.031 49.1562C152.162 49.2782 151.259 49.4607 150.5 49.4062C148.336 50.2088 146.29 50.1946 144.625 49.0625C144.519 48.9903 144.465 48.9012 144.406 48.8125C144.279 48.8221 143.901 48.8725 143.812 48.875C143.657 48.8794 143.646 48.8185 143.531 48.8125C143.442 50.0869 143.278 50.9491 142.844 51.0938C142.315 51.2702 142.035 50.9135 141.844 50.3125C141.732 49.9613 141.621 49.4626 141.531 48.8125C141.526 48.7741 141.537 48.6956 141.531 48.6562C141.4 48.6657 141.289 48.8209 141.156 48.7188C140.966 48.5724 140.909 48.3668 140.875 48.0938C140.872 48.0727 140.876 48.0273 140.875 48C140.224 47.9895 139.216 48.1099 139 47.9375C138.773 47.7562 138.653 47.4878 138.812 47.1875C138.911 47.0022 139.051 46.9064 139.25 46.8438C139.426 46.7885 139.617 46.7622 140 46.7188C140.055 46.7125 140.071 46.7249 140.125 46.7188C140.39 46.6888 140.511 46.6458 140.594 46.625C140.611 46.6206 140.738 46.6035 140.781 46.5938C140.781 46.5497 140.781 46.4277 140.781 46.375C140.729 46.3733 140.635 46.3795 140.594 46.375C140.198 46.3321 139.931 46.2614 139.75 46.0312C139.473 45.6788 139.605 45.2697 139.938 44.9375C140.125 44.7504 140.497 44.6221 140.781 44.4688C140.781 44.4405 140.781 44.4347 140.781 44.4062C140.365 44.4399 139.968 44.4847 139.719 44.4688C139.503 44.455 139.327 44.4061 139.188 44.3438C138.891 44.2112 138.707 43.9041 138.844 43.5625C138.877 43.4782 140.291 43.212 140.781 43.0625C140.781 42.6399 140.781 42.478 140.781 42.125C139.636 42.0933 138.891 41.9373 138.719 41.5938C138.597 41.3494 138.693 41.1244 138.844 40.9688C138.904 40.9061 138.946 40.8592 139.031 40.8125C139.147 40.749 139.326 40.6995 139.531 40.625C139.822 40.5198 140.287 40.3661 140.781 40.2188C140.787 40.0673 140.805 39.8964 140.812 39.6875C140.811 38.9784 140.79 38.4282 140.781 37.875C140.212 37.8328 139.624 37.8387 139.125 37.625C138.677 37.4329 138.369 37.1444 138.656 36.6875C138.794 36.4675 139.016 36.3954 139.375 36.3125C139.478 36.2888 139.75 36.2709 139.875 36.25C139.912 36.2413 140.02 36.2276 140.062 36.2188C140.341 36.1614 140.679 36.1065 141.281 36.0312C141.464 36.0084 141.645 35.9686 141.906 35.9375C143.005 35.8066 143.22 35.7943 143.5 35.75C143.586 35.7331 143.626 35.7369 143.719 35.7188C144.16 35.632 144.636 35.5223 144.75 35.5C147.47 34.9672 149.194 34.6863 151 34.4688C153.496 34.1681 155.703 34.1003 157.719 34.3125C157.841 34.3254 157.921 34.3194 158 34.3438C158.058 34.3616 158.105 34.4035 158.156 34.4375C158.856 34.3749 159.504 34.3551 160.125 34.3438C160.618 34.3347 161.244 34.2246 161.688 34.25C163.08 34.3299 164.24 34.6041 165.156 35.0625C165.261 35.115 165.336 35.1694 165.406 35.25C165.525 35.3859 165.484 35.5738 165.438 35.75C165.526 35.7316 165.597 35.7046 165.688 35.6875C167.648 35.3152 169.472 35.2335 171.188 35.25C174.007 34.2255 176.584 33.7428 178.281 34.0625ZM177.75 34.9688C177.165 34.9115 176.381 35.0312 175.562 35.1562C175.979 35.3545 176.418 35.5102 176.688 35.9375C176.713 35.9785 176.697 36.0378 176.688 36.0938C177.031 36.0855 177.342 36.0704 177.688 36.0625C177.948 36.0566 178.134 36.0373 178.375 36.0312C178.65 35.92 178.939 35.8067 179.219 35.6875C179.209 35.6707 179.229 35.6414 179.219 35.625C178.988 35.2565 178.468 35.039 177.75 34.9688ZM197.438 35.4375C196.986 35.5011 196.423 35.8129 195.938 35.9375C196.108 35.9706 196.295 35.9703 196.406 36.0938C196.615 36.3258 196.603 36.5106 196.5 36.6875C199.281 36.5317 201.201 36.6381 202.469 37.0938C202.466 36.8744 202.469 36.6607 202.344 36.5C201.516 35.4356 199.706 35.1181 197.438 35.4375ZM210.438 37.8438C210.311 37.8053 209.969 37.9012 209.719 37.9375C209.945 38.0839 210.063 38.3699 210.219 38.625C210.288 38.4884 210.474 38.3052 210.5 38.1875C210.561 37.9148 210.546 37.8767 210.438 37.8438ZM162.031 39.0938C161.96 39.1365 161.884 39.1742 161.812 39.2188C161.851 39.2171 161.953 39.2148 161.969 39.2188C162.05 39.239 162.129 39.2539 162.188 39.2812C162.256 39.3133 162.254 39.3264 162.375 39.4375C162.43 39.5323 162.358 39.6005 162.375 39.6562C162.381 39.6508 162.4 39.6617 162.406 39.6562C162.64 39.4472 162.98 39.2861 163.25 39.0938C162.86 39.0935 162.391 39.104 162.031 39.0938ZM202.969 42.4062C202.828 42.556 202.758 42.6939 202.625 42.8438C202.803 42.8425 202.978 42.8448 203.156 42.8438C203.235 42.6957 203.288 42.553 203.344 42.4062C203.224 42.4156 203.095 42.3987 202.969 42.4062ZM149.188 43.1562C149.137 43.1656 149.115 43.1779 149.062 43.1875C149.008 43.7389 148.94 44.1118 148.875 44.5312C148.928 44.5222 149.166 44.4829 149.25 44.4688C149.227 44.1327 149.208 43.8664 149.188 43.5C149.187 43.485 149.188 43.2315 149.188 43.1562ZM202.25 46.0938C202.216 46.1136 202.193 46.1368 202.156 46.1562C201.936 46.2739 201.743 46.3352 201.531 46.4375C202.018 46.4408 202.498 46.4673 202.75 46.4688C202.776 46.3867 202.829 46.2318 202.875 46.0938C202.647 46.0931 202.417 46.0941 202.25 46.0938ZM156.062 48.4688C155.693 48.5868 155.296 48.8122 154.938 48.9062C155.778 49.0753 156.686 49.0397 157.656 48.875C157.379 48.8148 157.009 48.8233 156.75 48.75C156.489 48.6762 156.303 48.5555 156.062 48.4688Z" fill="#ce5a4e" fill-rule="nonzero" opacity="1" stroke="none" vectornator:layerName="Kurve 1"/>
<g opacity="1" vectornator:layerName="path">
<clipPath id="ClipPath">
<path d="M124.77 26.38L226.82 26.38L226.82 57.56L124.77 57.56L124.77 26.38Z"/>
</clipPath>
<g clip-path="url(#ClipPath)">
<path d="M207.97 42.08C207.87 40.11 206.83 39.01 205.09 39.01C203.64 39.01 202.55 39.74 201.87 40.86L201.87 39.16L200.41 39.16L200.41 48.37L201.87 48.37L201.87 45.05C201.87 41.92 203.31 40.4 204.83 40.4C205.87 40.4 206.4 41.02 206.52 42.08L207.97 42.08ZM194.24 40.4C195.66 40.4 196.58 41.24 196.84 42.7L191.66 42.7C191.96 41.32 192.84 40.4 194.24 40.4M198.39 43.46C198.39 41.04 196.95 39.01 194.24 39.01C191.63 39.01 190.06 41.17 190.06 43.77C190.06 46.45 191.69 48.52 194.24 48.52C195.87 48.52 197.26 47.88 198.21 45.94L197.05 45.3C196.46 46.45 195.56 47.13 194.25 47.13C192.7 47.13 191.64 45.93 191.55 44.09L198.38 44.09L198.38 43.45L198.39 43.46ZM180.7 40.55L183.03 40.55L183.03 45.32C183.03 47.46 184.08 48.52 185.99 48.52C187.09 48.52 187.88 48.17 188.68 47.32L188.14 46.03C187.38 46.87 186.75 47.13 185.99 47.13C185.02 47.13 184.49 46.54 184.49 45.26L184.49 40.55L188.75 40.55L188.75 39.16L184.48 39.16L184.48 35.43L183.03 36.4L183.03 39.16L180.71 39.16L180.71 40.55L180.7 40.55ZM176.06 39.01C174.45 39.01 173.08 40.04 173.08 41.68C173.08 43.49 174.43 44.02 175.9 44.35C177.29 44.66 178.16 44.92 178.16 45.71C178.16 46.67 177.29 47.13 176.3 47.13C175.1 47.13 174.27 46.43 173.9 45.3L172.5 45.85C173.04 47.61 174.55 48.52 176.3 48.52C178.1 48.52 179.66 47.46 179.66 45.56C179.66 43.9 178.16 43.4 176.53 43.06C175.23 42.78 174.5 42.41 174.5 41.63C174.5 40.73 175.26 40.4 176 40.4C176.94 40.4 177.57 40.84 178.1 41.87L179.25 41.01C178.59 39.74 177.64 39.01 176.05 39.01M170.93 41.96C170.93 40.18 170.08 39.01 168.26 39.01C167.01 39.01 165.92 39.8 165.29 40.86L165.29 39.16L163.84 39.16L163.84 48.37L165.29 48.37L165.29 44.67C165.29 41.97 166.49 40.4 167.86 40.4C168.9 40.4 169.46 41 169.46 42.28L169.46 48.38L170.92 48.38L170.92 41.95L170.93 41.96ZM158.34 36.47C158.34 37.06 158.77 37.5 159.31 37.5C159.88 37.5 160.3 37.06 160.3 36.47C160.3 35.89 159.88 35.43 159.31 35.43C158.77 35.43 158.34 35.89 158.34 36.47M155.15 36.47C155.15 37.06 155.58 37.5 156.12 37.5C156.69 37.5 157.11 37.06 157.11 36.47C157.11 35.89 156.69 35.43 156.12 35.43C155.58 35.43 155.15 35.89 155.15 36.47M154.13 45.57C154.13 47.35 154.98 48.52 156.8 48.52C158.04 48.52 159.14 47.73 159.76 46.67L159.76 48.37L161.22 48.37L161.22 39.16L159.76 39.16L159.76 42.86C159.76 45.56 158.56 47.13 157.2 47.13C156.16 47.13 155.59 46.53 155.59 45.25L155.59 39.15L154.13 39.15L154.13 45.58L154.13 45.57ZM143.63 35.57L143.63 48.37L145.15 48.37L145.15 38.99L147.26 44.69L148.41 44.69L150.52 38.99L150.52 48.37L152.04 48.37L152.04 35.57L150.42 35.57L147.83 42.67L145.25 35.57L143.62 35.57L143.63 35.57Z" fill="#ffffff" fill-rule="nonzero" opacity="1" stroke="none" vectornator:layerName="path"/>
</g>
</g>
<path d="M132.99 33.5404L222.06 33.5404L222.06 53.87L132.99 53.87L132.99 33.5404Z" fill="#ce5a4e" fill-rule="nonzero" opacity="1" stroke="#3395ff" stroke-linecap="butt" stroke-linejoin="round" stroke-opacity="0" stroke-width="10" vectornator:layerName="Rechteck 1"/>
<g fill="#ffffff" opacity="1" stroke="none" vectornator:layerName="Text 1">
<path d="M130.796 32.6721L133.292 32.6721L141.17 45.3076L141.17 32.6721L143.177 32.6721L143.177 48.27L140.809 48.27L132.814 35.6451L132.814 48.27L130.796 48.27L130.796 32.6721Z"/>
<path d="M148.157 36.8981L148.157 44.4475C148.157 45.028 148.249 45.5022 148.433 45.8703C148.773 46.5499 149.406 46.8897 150.334 46.8897C151.664 46.8897 152.57 46.295 153.052 45.1058C153.314 44.4687 153.445 43.5945 153.445 42.4832L153.445 36.8981L155.356 36.8981L155.356 48.27L153.551 48.27L153.572 46.5923C153.324 47.0241 153.016 47.3887 152.648 47.686C151.919 48.2806 151.034 48.5779 149.994 48.5779C148.373 48.5779 147.269 48.0364 146.681 46.9534C146.362 46.3729 146.203 45.5978 146.203 44.628L146.203 36.8981L148.157 36.8981ZM151.671 32.9269L153.657 32.9269L153.657 35.1355L151.671 35.1355L151.671 32.9269ZM148.168 32.9269L150.153 32.9269L150.153 35.1355L148.168 35.1355L148.168 32.9269Z"/>
<path d="M158.393 36.8981L160.208 36.8981L160.208 38.8624C160.357 38.4802 160.722 38.0147 161.302 37.4661C161.883 36.9175 162.551 36.6432 163.309 36.6432C163.344 36.6432 163.404 36.6468 163.489 36.6539C163.574 36.6609 163.719 36.6751 163.925 36.6963L163.925 38.7138C163.811 38.6925 163.707 38.6784 163.611 38.6713C163.516 38.6642 163.412 38.6607 163.298 38.6607C162.336 38.6607 161.596 38.9704 161.079 39.5897C160.562 40.2091 160.304 40.9223 160.304 41.7293L160.304 48.27L158.393 48.27L158.393 36.8981Z"/>
<path d="M165.581 36.8981L167.397 36.8981L167.397 38.512C167.935 37.8466 168.505 37.3688 169.106 37.0786C169.708 36.7884 170.377 36.6432 171.113 36.6432C172.727 36.6432 173.817 37.206 174.383 38.3315C174.695 38.9474 174.851 39.8287 174.851 40.9754L174.851 48.27L172.908 48.27L172.908 41.1028C172.908 40.4091 172.805 39.8499 172.6 39.4252C172.26 38.7173 171.644 38.3634 170.752 38.3634C170.299 38.3634 169.927 38.4094 169.637 38.5014C169.113 38.6571 168.653 38.9686 168.257 39.4358C167.938 39.811 167.731 40.1985 167.636 40.5985C167.54 40.9984 167.492 41.57 167.492 42.3133L167.492 48.27L165.581 48.27L165.581 36.8981Z"/>
<path d="M177.526 32.619L179.385 32.619L179.385 38.2784C179.802 37.7334 180.301 37.3175 180.882 37.0308C181.462 36.7441 182.092 36.6008 182.772 36.6008C184.187 36.6008 185.336 37.0874 186.217 38.0607C187.099 39.0341 187.539 40.4693 187.539 42.3664C187.539 44.1644 187.104 45.658 186.233 46.8472C185.363 48.0364 184.156 48.631 182.612 48.631C181.749 48.631 181.02 48.4222 180.425 48.0045C180.071 47.7568 179.693 47.3604 179.289 46.8153L179.289 48.27L177.526 48.27L177.526 32.619ZM182.496 46.9427C183.529 46.9427 184.303 46.5322 184.816 45.7111C185.329 44.8899 185.586 43.8069 185.586 42.4619C185.586 41.2656 185.329 40.2746 184.816 39.4889C184.303 38.7031 183.547 38.3103 182.549 38.3103C181.678 38.3103 180.915 38.6324 180.261 39.2765C179.606 39.9207 179.278 40.9825 179.278 42.4619C179.278 43.5308 179.413 44.398 179.682 45.0633C180.184 46.3163 181.122 46.9427 182.496 46.9427Z"/>
<path d="M194.505 36.6432C195.312 36.6432 196.094 36.8326 196.851 37.2113C197.609 37.59 198.186 38.0802 198.582 38.6819C198.964 39.2553 199.219 39.9242 199.347 40.6887C199.46 41.2125 199.516 42.0478 199.516 43.1946L191.181 43.1946C191.217 44.3484 191.489 45.2739 191.999 45.9712C192.509 46.6684 193.298 47.0171 194.367 47.0171C195.365 47.0171 196.161 46.6879 196.756 46.0296C197.096 45.6473 197.336 45.2049 197.478 44.7023L199.357 44.7023C199.308 45.12 199.143 45.5854 198.863 46.0986C198.584 46.6118 198.271 47.0312 197.924 47.3568C197.343 47.9231 196.625 48.3054 195.768 48.5036C195.308 48.6169 194.788 48.6735 194.207 48.6735C192.792 48.6735 191.592 48.1585 190.608 47.1286C189.624 46.0986 189.132 44.6563 189.132 42.8017C189.132 40.9754 189.627 39.4924 190.618 38.3527C191.61 37.2131 192.905 36.6432 194.505 36.6432ZM197.552 41.6762C197.474 40.848 197.294 40.1861 197.011 39.6906C196.487 38.7704 195.613 38.3103 194.388 38.3103C193.51 38.3103 192.774 38.627 192.179 39.2606C191.585 39.8941 191.27 40.6993 191.234 41.6762L197.552 41.6762Z"/>
<path d="M201.916 36.8981L203.732 36.8981L203.732 38.8624C203.88 38.4802 204.245 38.0147 204.825 37.4661C205.406 36.9175 206.075 36.6432 206.832 36.6432C206.868 36.6432 206.928 36.6468 207.013 36.6539C207.098 36.6609 207.243 36.6751 207.448 36.6963L207.448 38.7138C207.335 38.6925 207.23 38.6784 207.135 38.6713C207.039 38.6642 206.935 38.6607 206.822 38.6607C205.859 38.6607 205.119 38.9704 204.602 39.5897C204.086 40.2091 203.827 40.9223 203.827 41.7293L203.827 48.27L201.916 48.27L201.916 36.8981Z"/>
<path d="M213.118 36.6963C214.01 36.6963 214.789 36.9158 215.454 37.3546C215.815 37.6024 216.183 37.9634 216.558 38.4377L216.558 37.0043L218.321 37.0043L218.321 47.3462C218.321 48.7903 218.109 49.93 217.684 50.7652C216.891 52.3084 215.394 53.08 213.192 53.08C211.968 53.08 210.938 52.8057 210.103 52.2571C209.267 51.7085 208.8 50.8502 208.701 49.6822L210.644 49.6822C210.736 50.1919 210.92 50.5847 211.196 50.8608C211.628 51.2855 212.308 51.4979 213.235 51.4979C214.7 51.4979 215.659 50.9811 216.112 49.9477C216.381 49.3389 216.505 48.2523 216.484 46.6879C216.102 47.2684 215.642 47.7002 215.104 47.9833C214.566 48.2665 213.854 48.408 212.969 48.408C211.738 48.408 210.66 47.9709 209.736 47.0967C208.813 46.2225 208.351 44.7767 208.351 42.7592C208.351 40.8551 208.816 39.3685 209.747 38.2997C210.678 37.2308 211.801 36.6963 213.118 36.6963ZM216.558 42.5363C216.558 41.1276 216.268 40.0835 215.688 39.4039C215.107 38.7244 214.368 38.3846 213.469 38.3846C212.124 38.3846 211.203 39.0146 210.708 40.2746C210.446 40.9471 210.315 41.8284 210.315 42.9185C210.315 44.1997 210.575 45.1748 211.095 45.8438C211.616 46.5127 212.315 46.8472 213.192 46.8472C214.566 46.8472 215.532 46.2278 216.091 44.989C216.403 44.2882 216.558 43.4706 216.558 42.5363Z"/>
</g>
</g>
</svg>
