<svg stroke-miterlimit="10" style="fill-rule:nonzero;clip-rule:evenodd;stroke-linecap:round;stroke-linejoin:round" viewBox="0 0 226.82 53.87" xml:space="preserve" xmlns="http://www.w3.org/2000/svg" xmlns:vectornator="http://vectornator.io"><g vectornator:layerName="Ohne Titel"><path d="M33.77 49.32h1.9V4.55h-5.6v44.77h3.7z" fill="#d57a75" vectornator:layerName="path"/></g><g vectornator:layerName="g11"><path d="M52.27 53.855c.39 0 .9-.34.9-.72V.705c0-.39-.51-.7-.9-.7H34.8c-.39 0-.52.15-.52.35v4.54c0 .38.13.7.51.7h11.89c.38 0 .89.31.89.7v41.25c0 .38-.5.72-.9.72H34.8c-.38 0-.51.13-.51.32v4.55c0 .38.13.73.51.73h17.47v-.01z" fill="#ce5a4e" vectornator:layerName="path"/></g><g vectornator:layerName="Ohne Titel"><path d="M64.85 49.32h.9V4.55h-5.6v44.77h4.7z" fill="#8bbd97" vectornator:layerName="path"/></g><clipPath id="a"><path d="M0 0h226.82v53.87H0z"/></clipPath><g clip-path="url(#a)" vectornator:layerName="g17"><path d="M65.05 53.83v-5.59c7.7 0 13.07-9.56 13.07-21.32S72.75 5.6 65.05 5.6V0c10.5 0 18.66 12.08 18.66 26.92 0 14.84-8.17 26.91-18.66 26.91" fill="#4ea15a" vectornator:layerName="path"/><path d="M7 36.63v10.2c0 4.18 2.67 7.04 6.9 7.04h8.66c.2 0 .52-.35.52-.73v-4.2c0-.38-.48-.67-.87-.67h-7.34c-1.8 0-2.28-.77-2.28-2.84V33.37c0-4.22-1.71-5.77-3.8-6.54 2.09-.76 3.8-2.31 3.8-6.53V8.24c0-2.03.4-2.64 2.28-2.64h7.69c.2 0 .52-.32.52-.7V.7c0-.38-.49-.7-.87-.7h-8.3C9.68 0 7 2.74 7 6.84v11.34s-.14 2.1-.24 2.81c-.27 1.9-2.58 3.52-4.02 3.5H.54c-.38 0-.54.3-.54.68v4.2c0 .38.16.71.54.71h2.01c1.83-.02 4.15 1.52 4.32 3.82.05.67.13 2.74.13 2.74" fill="#33a1df" vectornator:layerName="path"/><path d="M34.8.01h-4.2c-.39 0-.52.31-.52.7V5.6h5.59V0h-.87v.01zM30.07 48.94v4.19c0 .39.15.73.53.73h5.07v-5.59h-5.59v.67h-.01z" fill="#bd3c38" vectornator:layerName="path"/><path d="M64.85.01h-4.18c-.38 0-.5.31-.5.7V5.6h5.59V0h-.9l-.01.01zM60.16 48.94v4.19c0 .39.12.73.5.73h5.1v-5.59h-5.61v.67h.01z" fill="#27954e" vectornator:layerName="path"/><path d="M95.13 36.63v10.2c0 4.18 2.63 7.04 6.86 7.04h8.65c.2 0 .57-.35.57-.73v-4.2c0-.38-.53-.67-.92-.67h-7.32c-1.81 0-2.24-.77-2.24-2.84V33.37c0-1.36-.4-2.59-.7-3.29h-9.4c2.59.7 3.69 1.62 4.21 3.87.27 1.12.3 2.69.3 2.69M94.73 20.99c-.54 1.84-1.75 2.8-3.9 3.5h8.8c.55-1.4 1.1-2.33 1.1-4.19V8.24c0-2.03.35-2.64 2.23-2.64h7.68c.2 0 .58-.32.58-.7V.7c0-.38-.54-.7-.93-.7h-8.3c-4.23 0-6.86 2.75-6.86 6.84v11.34s-.13 1.9-.4 2.82" fill="#7bbbb7" vectornator:layerName="path"/><path d="M96.09 27.33c1.42.52 2.97 1.35 3.93 2.75h10.27c.39 0 .93-.33.93-.71v-4.2c0-.38-.54-.69-.93-.69H99.63c-.7 1.4-2.36 2.42-3.54 2.85" fill="#9ac9c6" vectornator:layerName="path"/><path d="M88.62 24.49c-.38 0-.49.3-.49.68v4.2c0 .38.1.72.5.72h11.39c-.63-1.4-2.2-2.36-3.32-2.8a5.5 5.5 0 0 0 2.93-2.8H88.62z" fill="#42a5a5" vectornator:layerName="path"/></g><g clip-path="url(#a)" vectornator:layerName="Ohne Titel"><path d="M137.3 3.51a3.54 3.54 0 0 0-2.06-.68c-1.21 0-1.87.76-1.87 2.41v.83h4.97V8h-4.97v10.85h-2.13V8h-3.6V6.07h3.6V5.3c0-3.1 1.5-4.39 3.93-4.39 1.17 0 1.95.3 2.66.74l-.53 1.87v-.01zM145.44 17.13c2.6 0 4.1-2.2 4.1-4.67 0-2.46-1.5-4.66-4.1-4.66-2.61 0-4.1 2.2-4.1 4.66s1.49 4.67 4.1 4.67m0-11.26c3.9 0 6.28 3.07 6.28 6.6 0 3.52-2.38 6.58-6.28 6.58-3.9 0-6.29-3.06-6.29-6.59 0-3.52 2.39-6.59 6.29-6.59M163.23 10.13c-.18-1.47-.94-2.33-2.46-2.33-2.23 0-4.33 2.1-4.33 6.44v4.61h-2.13V6.07h2.13v2.36a5.39 5.39 0 0 1 4.71-2.56c2.54 0 4.06 1.52 4.21 4.26h-2.13z" vectornator:layerName="path"/><path d="M124.77 21.78h102.05v31.18H124.77V21.78z" fill="#ce5a4e" vectornator:layerName="path"/><g vectornator:layerName="path"><clipPath id="b"><path d="M99.548 14.066h152.494V60.66H99.548V14.066z"/></clipPath><g clip-path="url(#b)"><path d="M223.874 37.527c-.149-2.944-1.703-4.588-4.303-4.588-2.167 0-3.796 1.091-4.812 2.765v-2.54h-2.182v13.762h2.182v-4.961c0-4.677 2.152-6.949 4.423-6.949 1.554 0 2.346.927 2.526 2.51h2.166zm-20.517-2.51c2.122 0 3.497 1.255 3.886 3.436h-7.741c.448-2.062 1.763-3.437 3.855-3.437m6.202 4.573c0-3.616-2.152-6.65-6.202-6.65-3.9 0-6.246 3.228-6.246 7.113 0 4.005 2.436 7.098 6.246 7.098 2.436 0 4.513-.956 5.933-3.855l-1.734-.956c-.881 1.718-2.226 2.734-4.184 2.734-2.316 0-3.9-1.793-4.034-4.542h10.206v-.957l.015.015zm-26.434-4.348h3.481v7.127c0 3.198 1.569 4.782 4.423 4.782 1.644 0 2.825-.523 4.02-1.793l-.807-1.928c-1.135 1.256-2.077 1.644-3.213 1.644-1.449 0-2.241-.882-2.241-2.794V35.24h6.366v-2.078h-6.381V27.59l-2.167 1.45v4.123h-3.466v2.078h-.015zm-6.934-2.302c-2.406 0-4.453 1.54-4.453 3.99 0 2.705 2.017 3.497 4.214 3.99 2.077.463 3.377.852 3.377 2.032 0 1.435-1.3 2.122-2.779 2.122-1.794 0-3.034-1.046-3.587-2.734l-2.092.821c.807 2.63 3.064 3.99 5.679 3.99 2.689 0 5.02-1.584 5.02-4.423 0-2.48-2.241-3.228-4.677-3.736-1.942-.418-3.033-.971-3.033-2.136 0-1.345 1.136-1.838 2.241-1.838 1.405 0 2.346.657 3.138 2.196l1.719-1.285c-.986-1.898-2.406-2.989-4.782-2.989m-7.651 4.409c0-2.66-1.27-4.409-3.99-4.409-1.867 0-3.496 1.18-4.438 2.765v-2.54h-2.166v13.762h2.166v-5.529c0-4.035 1.793-6.38 3.841-6.38 1.554 0 2.391.896 2.391 2.809v9.115h2.181v-9.608l.015.015zm-18.813-8.204c0 .882.642 1.539 1.449 1.539.852 0 1.48-.657 1.48-1.54 0-.866-.628-1.553-1.48-1.553-.807 0-1.449.687-1.449 1.554m-4.767 0c0 .882.643 1.539 1.45 1.539.851 0 1.479-.657 1.479-1.54 0-.866-.628-1.553-1.479-1.553-.807 0-1.45.687-1.45 1.554m-1.524 13.598c0 2.66 1.27 4.408 3.99 4.408 1.853 0 3.496-1.18 4.423-2.764v2.54h2.181V33.163h-2.181v5.53c0 4.034-1.793 6.38-3.826 6.38-1.554 0-2.405-.896-2.405-2.81V33.15h-2.182v9.608-.015zm-15.69-14.943v19.127h2.271V32.91l3.153 8.518h1.718l3.153-8.517v14.016h2.272V27.8h-2.421l-3.87 10.61-3.856-10.61h-2.435.015z" fill="#fff" vectornator:layerName="path"/></g></g><path d="M127.64 27.29h99.18v20.98h-99.18V27.29z" fill="#ce5a4e" vectornator:layerName="Rechteck 1"/><g fill="#fff" vectornator:layerName="Text 1"><path d="M130.796 28.721h2.496l7.878 12.635V28.721h2.007v15.598h-2.368l-7.995-12.625v12.625h-2.018V28.72zM148.157 32.947v7.55c0 .58.092 1.054.276 1.422.34.68.973 1.02 1.901 1.02 1.33 0 2.236-.595 2.718-1.784.262-.637.393-1.512.393-2.623v-5.585h1.911v11.372h-1.805l.021-1.678a3.862 3.862 0 0 1-.924 1.094c-.729.595-1.614.892-2.654.892-1.621 0-2.725-.542-3.313-1.625-.319-.58-.478-1.355-.478-2.325v-7.73h1.954zm3.514-3.971h1.986v2.208h-1.986v-2.208zm-3.503 0h1.985v2.208h-1.985v-2.208zM158.393 32.947h1.815v1.964c.149-.382.514-.847 1.094-1.396.581-.549 1.249-.823 2.007-.823.035 0 .095.004.18.01l.436.043v2.018a2.867 2.867 0 0 0-.314-.043 4.217 4.217 0 0 0-.313-.01c-.962 0-1.702.31-2.219.929a3.242 3.242 0 0 0-.775 2.14v6.54h-1.911V32.947zM165.581 32.947h1.816v1.614c.538-.666 1.108-1.143 1.709-1.434a4.562 4.562 0 0 1 2.007-.435c1.614 0 2.704.563 3.27 1.688.312.616.468 1.498.468 2.644v7.295h-1.943v-7.167c0-.694-.103-1.253-.308-1.678-.34-.708-.956-1.062-1.848-1.062-.453 0-.825.046-1.115.138-.524.156-.984.468-1.38.935-.319.375-.526.762-.621 1.162-.096.4-.144.972-.144 1.715v5.957h-1.911V32.947zM177.526 28.668h1.859v5.66c.417-.546.916-.962 1.497-1.248.58-.287 1.21-.43 1.89-.43 1.415 0 2.564.486 3.445 1.46.882.973 1.322 2.408 1.322 4.305 0 1.798-.435 3.292-1.306 4.481-.87 1.19-2.077 1.784-3.621 1.784-.863 0-1.592-.209-2.187-.627-.354-.247-.732-.644-1.136-1.189v1.455h-1.763V28.668zm4.97 14.324c1.033 0 1.807-.41 2.32-1.232.513-.821.77-1.904.77-3.25 0-1.195-.257-2.186-.77-2.972s-1.269-1.179-2.267-1.179c-.871 0-1.634.322-2.288.966-.655.645-.983 1.706-.983 3.186 0 1.069.135 1.936.404 2.601.502 1.253 1.44 1.88 2.814 1.88zM194.505 32.692c.807 0 1.589.19 2.346.568.758.379 1.335.87 1.731 1.47.382.574.637 1.243.765 2.008.113.523.169 1.359.169 2.505h-8.335c.036 1.154.308 2.08.818 2.777.51.697 1.299 1.046 2.368 1.046.998 0 1.794-.33 2.389-.988.34-.382.58-.824.722-1.327h1.879c-.049.418-.214.883-.494 1.397-.279.513-.592.932-.939 1.258-.581.566-1.299.948-2.156 1.147-.46.113-.98.17-1.561.17-1.415 0-2.615-.516-3.599-1.545-.984-1.03-1.476-2.473-1.476-4.327 0-1.827.495-3.31 1.486-4.45.992-1.139 2.287-1.709 3.887-1.709zm3.047 5.033c-.078-.828-.258-1.49-.541-1.986-.524-.92-1.398-1.38-2.623-1.38-.878 0-1.614.317-2.209.95-.594.634-.909 1.44-.945 2.416h6.318zM201.916 32.947h1.816v1.964c.148-.382.513-.847 1.093-1.396.581-.549 1.25-.823 2.007-.823.036 0 .096.004.181.01l.435.043v2.018a2.851 2.851 0 0 0-.313-.043c-.096-.007-.2-.01-.313-.01-.963 0-1.703.31-2.22.929a3.247 3.247 0 0 0-.775 2.14v6.54h-1.911V32.947zM213.118 32.745c.892 0 1.671.22 2.336.659.361.247.729.608 1.104 1.083v-1.434h1.763v10.342c0 1.444-.212 2.584-.637 3.42-.793 1.542-2.29 2.314-4.492 2.314-1.224 0-2.254-.274-3.089-.823-.836-.549-1.303-1.407-1.402-2.575h1.943c.092.51.276.903.552 1.179.432.424 1.112.637 2.039.637 1.465 0 2.424-.517 2.877-1.55.269-.61.393-1.696.372-3.26-.382.58-.842 1.012-1.38 1.295-.538.283-1.25.425-2.135.425-1.231 0-2.309-.437-3.233-1.311-.923-.875-1.385-2.32-1.385-4.338 0-1.904.465-3.39 1.396-4.46.931-1.068 2.054-1.603 3.371-1.603zm3.44 5.84c0-1.409-.29-2.453-.87-3.132-.581-.68-1.32-1.02-2.219-1.02-1.345 0-2.266.63-2.761 1.89-.262.673-.393 1.554-.393 2.644 0 1.282.26 2.257.78 2.926.521.669 1.22 1.003 2.097 1.003 1.374 0 2.34-.62 2.899-1.858.312-.7.467-1.518.467-2.453z"/></g></g></svg>